<svg width="30" height="30" viewBox="0 0 30 30" fill="none" xmlns="http://www.w3.org/2000/svg">
<path d="M6.64862 18.1294L5.60436 22.0277L1.78761 22.1085C0.646963 19.9928 -3.05176e-05 17.5723 -3.05176e-05 15C-3.05176e-05 12.5126 0.604893 10.167 1.67716 8.10162H1.67798L5.07596 8.72459L6.56448 12.1022C6.25293 13.0104 6.08313 13.9854 6.08313 15C6.08324 16.1011 6.2827 17.1561 6.64862 18.1294Z" fill="#FBBB00"/>
<path d="M29.7379 12.1978C29.9102 13.1051 30 14.0422 30 14.9999C30 16.0739 29.8871 17.1214 29.672 18.1318C28.9418 21.5703 27.0338 24.5728 24.3907 26.6975L24.3899 26.6967L20.11 26.4783L19.5042 22.697C21.2581 21.6684 22.6287 20.0588 23.3507 18.1318H15.3298V12.1978H29.7379Z" fill="#518EF8"/>
<path d="M24.3898 26.6967L24.3907 26.6975C21.8201 28.7637 18.5547 30 15 30C9.28762 30 4.32115 26.8071 1.78761 22.1085L6.64861 18.1294C7.91535 21.5101 11.1766 23.9168 15 23.9168C16.6434 23.9168 18.183 23.4725 19.5041 22.697L24.3898 26.6967Z" fill="#28B446"/>
<path d="M24.5745 3.45323L19.7151 7.43152C18.3478 6.57687 16.7316 6.08316 15 6.08316C11.0901 6.08316 7.76782 8.60017 6.56454 12.1022L1.67798 8.1016H1.67716C4.17361 3.2884 9.20272 -6.10352e-05 15 -6.10352e-05C18.6396 -6.10352e-05 21.9767 1.29639 24.5745 3.45323Z" fill="#F14336"/>
</svg>
