<svg width="37" height="30" viewBox="0 0 37 30" fill="none" xmlns="http://www.w3.org/2000/svg">
<path d="M36.4115 3.48993C35.5895 3.84526 34.7361 4.12559 33.8604 4.32854C34.8253 3.4348 35.5508 2.31692 35.96 1.06916C36.0769 0.712952 35.6799 0.404926 35.35 0.595651C34.1318 1.29999 32.8196 1.82837 31.4497 2.16629C31.3703 2.1859 31.2883 2.19584 31.206 2.19584C30.9565 2.19584 30.7139 2.10553 30.5231 1.94162C29.0657 0.689562 27.1912 0 25.2451 0C24.403 0 23.5528 0.127941 22.718 0.380306C20.1315 1.16228 18.1357 3.24196 17.5096 5.80782C17.2747 6.77023 17.2111 7.73353 17.3204 8.67088C17.333 8.7786 17.2807 8.85378 17.2485 8.88904C17.192 8.95085 17.1118 8.98629 17.0285 8.98629C17.0192 8.98629 17.0097 8.98585 17.0002 8.98497C11.3384 8.47224 6.23293 5.81344 2.62408 1.49845C2.44005 1.27835 2.08715 1.30535 1.94047 1.55059C1.23377 2.7324 0.860299 4.08409 0.860299 5.45952C0.860299 7.56742 1.72911 9.55389 3.23823 11.002C2.6036 10.8554 1.98937 10.6244 1.41879 10.3155C1.14275 10.166 0.803106 10.3581 0.799227 10.6659C0.759715 13.7973 2.64059 16.5837 5.4582 17.8384C5.40146 17.8397 5.34472 17.8403 5.28789 17.8403C4.84126 17.8403 4.38904 17.7983 3.94394 17.7154C3.63308 17.6575 3.37192 17.945 3.46845 18.2388C4.38299 21.0219 6.84139 23.0733 9.78331 23.5391C7.34169 25.1367 4.49837 25.9795 1.53904 25.9795L0.616462 25.979C0.332211 25.979 0.091802 26.1596 0.0193635 26.4279C-0.0519924 26.6923 0.0794433 26.9711 0.321837 27.1085C3.65653 29.0002 7.46023 30 11.3234 30C14.7049 30 17.868 29.3459 20.725 28.0559C23.344 26.8733 25.6584 25.1828 27.6039 23.0314C29.4162 21.0273 30.8334 18.7137 31.816 16.155C32.7526 13.7161 33.2477 11.1136 33.2477 8.62902V8.51067C33.2476 8.11172 33.4327 7.73634 33.7557 7.48081C34.9812 6.51092 36.0484 5.36921 36.9275 4.08743C37.1596 3.74898 36.7935 3.32479 36.4115 3.48993Z" fill="#1DA1F2"/>
</svg>
